# xmcd
#
# Track frame offsets: 
#        150
#        11158
#        27665
#        44140
#        58143
#        71236
#        87761
#        97066
#        111422
#        127803
#        143646
#
# Disc length: 2133 seconds
#
# Revision: 1
# Processed by: cddbd v1.5.2PL0 Copyright (c) Steve Scherf et al.
# Submitted via: ExactAudioCopy v1.3
#
DISCID=a508530b
DTITLE=Bazbaz - La chose
DYEAR=2010
DGENRE=Pop
TTITLE0=Insectes
TTITLE1=Sirenes
TTITLE2=C'est doux
TTITLE3=La chose
TTITLE4=Sait elle
TTITLE5=Matiere premiere
TTITLE6=Nanana
TTITLE7=Touche a tout
TTITLE8=Etranger
TTITLE9=Bisous
TTITLE10=Ma vie
EXTD=
EXTT0=
EXTT1=
EXTT2=
EXTT3=
EXTT4=
EXTT5=
EXTT6=
EXTT7=
EXTT8=
EXTT9=
EXTT10=
PLAYORDER=
